<svg width="1920" height="1080" viewBox="0 0 1920 1080" xmlns="http://www.w3.org/2000/svg">
  <defs>
    <radialGradient id="warmGradient" cx="50%" cy="40%" r="60%">
      <stop offset="0%" style="stop-color:#f4e4bc;stop-opacity:1" />
      <stop offset="30%" style="stop-color:#e6d3a3;stop-opacity:1" />
      <stop offset="70%" style="stop-color:#d4b896;stop-opacity:1" />
      <stop offset="100%" style="stop-color:#8b7355;stop-opacity:1" />
    </radialGradient>
    <pattern id="stoneTexture" patternUnits="userSpaceOnUse" width="100" height="100">
      <rect width="100" height="100" fill="#c4a882"/>
      <circle cx="20" cy="30" r="8" fill="#b8a076" opacity="0.6"/>
      <circle cx="70" cy="60" r="12" fill="#d1b890" opacity="0.4"/>
      <circle cx="45" cy="80" r="6" fill="#a89668" opacity="0.7"/>
    </pattern>
    <filter id="softGlow">
      <feGaussianBlur stdDeviation="3" result="coloredBlur"/>
      <feMerge> 
        <feMergeNode in="coloredBlur"/>
        <feMergeNode in="SourceGraphic"/>
      </feMerge>
    </filter>
  </defs>
  
  <!-- Background with warm gradient -->
  <rect width="1920" height="1080" fill="url(#warmGradient)"/>
  
  <!-- Stone wall texture -->
  <rect x="0" y="0" width="1920" height="400" fill="url(#stoneTexture)" opacity="0.3"/>
  
  <!-- Architectural arch element -->
  <g transform="translate(960, 540)">
    <!-- Arch background -->
    <ellipse cx="0" cy="0" rx="200" ry="150" fill="#f8f4e6" opacity="0.9" filter="url(#softGlow)"/>
    <ellipse cx="0" cy="0" rx="180" ry="130" fill="none" stroke="#d4b896" stroke-width="3" opacity="0.7"/>
    
    <!-- Decorative ironwork pattern -->
    <g stroke="#8b7355" stroke-width="2" fill="none" opacity="0.6">
      <path d="M-120,-80 Q-60,-100 0,-80 Q60,-100 120,-80"/>
      <path d="M-100,-40 Q-50,-60 0,-40 Q50,-60 100,-40"/>
      <circle cx="-80" cy="-20" r="8"/>
      <circle cx="80" cy="-20" r="8"/>
      <path d="M-40,20 Q0,0 40,20"/>
    </g>
  </g>
  
  <!-- Romantic atmosphere with soft light rays -->
  <g opacity="0.3">
    <path d="M800,0 L900,400 L850,400 L750,0 Z" fill="url(#warmGradient)"/>
    <path d="M1100,0 L1200,400 L1150,400 L1050,0 Z" fill="url(#warmGradient)"/>
  </g>
  
  <!-- Subtle heart shapes for romance -->
  <g opacity="0.1" fill="#d4b896">
    <path d="M200,200 C200,180 220,160 240,160 C260,160 280,180 280,200 C280,220 240,260 240,260 C240,260 200,220 200,200 Z"/>
    <path d="M1600,300 C1600,280 1620,260 1640,260 C1660,260 1680,280 1680,300 C1680,320 1640,360 1640,360 C1640,360 1600,320 1600,300 Z"/>
  </g>
  
  <!-- Overlay for better text readability -->
  <rect width="1920" height="1080" fill="rgba(0,0,0,0.1)"/>
</svg>